<svg xmlns="http://www.w3.org/2000/svg" width="20" height="18" viewBox="0 0 20 18">
    <g fill="#222D65" fill-rule="nonzero">
        <path d="M.855 16.006H3.49v.941c0 .335.272.608.607.608h11.84a.607.607 0 0 0 .607-.608v-.941h.913a2.33 2.33 0 0 0 2.328-2.329V9.322a.607.607 0 0 0-.607-.607h-2.634V.669a.607.607 0 0 0-.607-.608H4.096A.607.607 0 0 0 3.49.67v8.044H.856a.607.607 0 0 0-.607.607v6.079c-.001.335.271.607.606.607zm14.473.334H4.703v-2.477h10.625v2.477zM4.703 1.275h10.625v7.438H4.703V1.275zm-3.24 8.652h17.106v3.75c0 .615-.5 1.115-1.114 1.115h-.913v-1.537a.607.607 0 0 0-.607-.607H4.096a.607.607 0 0 0-.607.607v1.537H1.462V9.927z"/>
        <path d="M8.549 11.029H9.66v1.213H8.55zM10.37 11.029h1.113v1.214H10.37z"/>
    </g>
</svg>
