<?xml version="1.0" encoding="UTF-8"?>
<svg width="12px" height="12px" viewBox="0 0 12 12" version="1.1" xmlns="http://www.w3.org/2000/svg" xmlns:xlink="http://www.w3.org/1999/xlink">
    <!-- Generator: Sketch 59.1 (86144) - https://sketch.com -->
    <title>Group 9</title>
    <desc>Created with Sketch.</desc>
    <g id="Symbols" stroke="none" stroke-width="1" fill="none" fill-rule="evenodd">
        <g id="Group-9" fill="#FFFFFF" fill-rule="nonzero">
            <path d="M8.64042353,-3.10862447e-14 L3.29322353,-3.10862447e-14 C1.47734118,-3.10862447e-14 -1.44773082e-13,1.47741176 -1.44773082e-13,3.29329412 L-1.44773082e-13,8.64049412 C-1.44773082e-13,10.4564471 1.47734118,11.9337882 3.29322353,11.9337882 L8.64042353,11.9337882 C10.4564471,11.9337882 11.9337882,10.4563765 11.9337882,8.64049412 L11.9337882,3.29329412 C11.9337882,1.47741176 10.4564471,-3.10862447e-14 8.64042353,-3.10862447e-14 Z M10.8750353,8.64049412 C10.8750353,9.87261176 9.87261176,10.8749647 8.64049412,10.8749647 L3.29322353,10.8749647 C2.06117647,10.8749647 1.05882353,9.87261176 1.05882353,8.64049412 L1.05882353,3.29329412 C1.05882353,2.06124706 2.06117647,1.05882353 3.29322353,1.05882353 L8.64042353,1.05882353 C9.87254118,1.05882353 10.8750353,2.06124706 10.8750353,3.29329412 L10.8750353,8.64049412 L10.8750353,8.64049412 Z" id="Shape"></path>
            <path d="M6.07503529,3 C4.37943529,3 3,4.37943529 3,6.07503529 C3,7.77056471 4.37943529,9.14992941 6.07503529,9.14992941 C7.77063529,9.14992941 9.15007059,7.77056471 9.15007059,6.07503529 C9.15007059,4.37943529 7.77063529,3 6.07503529,3 Z M6.07503529,8.09103529 C4.96334118,8.09103529 4.05882353,7.18665882 4.05882353,6.07496471 C4.05882353,4.9632 4.96327059,4.05875294 6.07503529,4.05875294 C7.1868,4.05875294 8.09124706,4.9632 8.09124706,6.07496471 C8.09124706,7.18665882 7.18672941,8.09103529 6.07503529,8.09103529 Z" id="Shape"></path>
            <path d="M9.17089412,1.99418824 C8.96689412,1.99418824 8.76649412,2.07677647 8.62242353,2.22148235 C8.47764706,2.36548235 8.39442353,2.56595294 8.39442353,2.77065882 C8.39442353,2.97472941 8.47771765,3.17512941 8.62242353,3.31983529 C8.76642353,3.46383529 8.96689412,3.54712941 9.17089412,3.54712941 C9.3756,3.54712941 9.57536471,3.46383529 9.72007059,3.31983529 C9.86477647,3.17512941 9.94736471,2.97465882 9.94736471,2.77065882 C9.94736471,2.56595294 9.86477647,2.36548235 9.72007059,2.22148235 C9.57607059,2.07677647 9.3756,1.99418824 9.17089412,1.99418824 Z" id="Path"></path>
        </g>
    </g>
</svg>