<svg xmlns="http://www.w3.org/2000/svg" width="20" height="20" viewBox="0 0 20 20">
    <path fill="#222D65" fill-rule="nonzero" d="M8.235 7.059H7.06V5.294h1.176V7.06zm2.353 4.117H9.412v1.765h1.176v-1.765zm-2.353-2.94H7.06V10h1.176V8.235zm0 2.94H7.06v1.765h1.176v-1.765zm0-8.823H7.06v1.765h1.176V2.353zm4.706 11.765H7.06v1.176h5.882v-1.176zm4.706-2.942h-1.176v1.765h1.176v-1.765zM20 8.824V20H0V8.824h4.706V0h10.588v8.824H20zM4.706 10h-3.53v8.824h1.177v-1.177h1.176v1.177h1.177V10zm5.882 7.647H9.412v1.177h1.176v-1.177zm3.53-16.47H5.882v17.647h2.353V16.47h3.53v2.353h2.353V1.176zM18.824 10h-3.53v8.824h1.177v-1.177h1.176v1.177h1.177V10zm-1.177 4.118h-1.176v1.764h1.176v-1.764zm-7.059-5.883H9.412V10h1.176V8.235zm2.353-2.94h-1.176v1.764h1.176V5.294zM3.53 11.175H2.353v1.765h1.176v-1.765zm9.412-2.94h-1.176V10h1.176V8.235zM3.53 14.117H2.353v1.764h1.176v-1.764zm9.412-11.765h-1.176v1.765h1.176V2.353zm-2.353 2.941H9.412V7.06h1.176V5.294zm2.353 5.882h-1.176v1.765h1.176v-1.765zm-2.353-8.823H9.412v1.765h1.176V2.353z"/>
</svg>
