<svg xmlns="http://www.w3.org/2000/svg" width="11" height="9" viewBox="0 0 11 9">
    <path fill="#FFF" fill-rule="evenodd" d="M11 1.066a4.623 4.623 0 0 1-1.125 1.176c.003.097.006.197.006.294C9.88 5.539 7.61 9 3.46 9A6.357 6.357 0 0 1 0 7.98a4.508 4.508 0 0 0 3.341-.94 2.26 2.26 0 0 1-2.108-1.58 2.232 2.232 0 0 0 1.02-.038 2.268 2.268 0 0 1-1.81-2.227v-.029c.304.17.652.273 1.022.284A2.274 2.274 0 0 1 .46 1.56c0-.418.111-.808.306-1.144a6.391 6.391 0 0 0 4.65 2.374 2.328 2.328 0 0 1-.057-.518A2.265 2.265 0 0 1 7.616 0c.65 0 1.236.275 1.647.719a4.517 4.517 0 0 0 1.433-.553 2.261 2.261 0 0 1-.992 1.256A4.47 4.47 0 0 0 11 1.066z"/>
</svg>
