<?xml version="1.0" encoding="utf-8"?>
<!-- Generator: Adobe Illustrator 26.3.1, SVG Export Plug-In . SVG Version: 6.00 Build 0)  -->
<svg version="1.1" id="Layer_1" xmlns="http://www.w3.org/2000/svg" xmlns:xlink="http://www.w3.org/1999/xlink" x="0px" y="0px"
	 viewBox="0 0 50 50" style="enable-background:new 0 0 50 50;" xml:space="preserve">
<style type="text/css">
	.st0{fill:#F6F6F6;}
</style>
<g>
	<circle class="st0" cx="5.26" cy="10.38" r="3.4"/>
	<path class="st0" d="M8.66,25c0,1.88-1.52,3.4-3.4,3.4s-3.4-1.52-3.4-3.4s1.52-3.4,3.4-3.4S8.66,23.12,8.66,25z"/>
	<path class="st0" d="M8.66,39.62c0,1.88-1.52,3.4-3.4,3.4s-3.4-1.52-3.4-3.4c0-1.88,1.52-3.4,3.4-3.4S8.66,37.74,8.66,39.62z"/>
	<path class="st0" d="M45.49,13.03h-29.1c-1.46,0-2.64-1.18-2.64-2.64v0c0-1.46,1.18-2.64,2.64-2.64h29.1
		c1.46,0,2.64,1.18,2.64,2.64v0C48.14,11.84,46.95,13.03,45.49,13.03z"/>
	<path class="st0" d="M34.99,27.64H16.39c-1.46,0-2.64-1.18-2.64-2.64v0c0-1.46,1.18-2.64,2.64-2.64h18.59
		c1.46,0,2.64,1.18,2.64,2.64v0C37.63,26.46,36.45,27.64,34.99,27.64z"/>
	<path class="st0" d="M40.24,42.26H16.39c-1.46,0-2.64-1.18-2.64-2.64v0c0-1.46,1.18-2.64,2.64-2.64h23.84
		c1.46,0,2.64,1.18,2.64,2.64v0C42.88,41.08,41.7,42.26,40.24,42.26z"/>
</g>
</svg>
