<svg width="375" height="111" viewBox="0 0 375 111" fill="none" xmlns="http://www.w3.org/2000/svg">
<path d="M110.001 55.1191C110.001 24.6731 85.3279 0 54.961 0C24.5941 0 0 24.6731 0 55.1191C0 85.5652 24.5941 110.238 54.961 110.238C85.3279 110.238 110.001 85.5652 110.001 55.1191Z" fill="#FC273F"/>
<path d="M187.658 110.238C218.012 110.238 242.619 85.5606 242.619 55.1191C242.619 24.6777 218.012 0 187.658 0C157.304 0 132.697 24.6777 132.697 55.1191C132.697 85.5606 157.304 110.238 187.658 110.238Z" fill="#FC273F"/>
<path d="M320.039 0C350.406 0 375 24.6731 375 55.1191C375 85.5652 350.406 110.238 320.039 110.238C289.672 110.238 265.078 85.5652 265.078 55.1191C265.078 24.6731 289.672 0 320.039 0Z" fill="#FC273F"/>
</svg>
