<svg xmlns="http://www.w3.org/2000/svg" width="20" height="20" viewBox="0 0 20 20">
    <path fill="#222D65" fill-rule="nonzero" d="M9.387 16.492a37.474 37.474 0 0 0 3.871 2.638c.874.514 1.637.785 2.288.807h.043c.75 0 1.292-.094 1.84-.571a24.287 24.287 0 0 0 2.113-2.1c.341-.38.504-.877.447-1.363-.057-.49-.333-.929-.777-1.237a49.486 49.486 0 0 1-1.695-1.25c-.331-.252-.662-.504-.995-.75a8.45 8.45 0 0 1-.221-.17c-.246-.19-.524-.408-.862-.563-.805-.372-1.558-.237-2.176.38l-.25.25c-.111.108-.22.216-.33.326a37.705 37.705 0 0 1-2.583-2.164C9.045 9.751 8.022 8.62 6.98 7.273c.153-.15.303-.302.454-.453l.249-.25c.325-.323.49-.723.492-1.187.002-.485-.164-.945-.508-1.405L7.01 3.1c-.49-.653-.98-1.307-1.473-1.958a3.739 3.739 0 0 1-.12-.167 2.669 2.669 0 0 0-.482-.564c-.725-.6-1.797-.537-2.497.15C1.861 1.128 1.289 1.7.72 2.272c-.496.498-.744 1.11-.718 1.77.035.923.301 1.825.768 2.61 1.062 1.782 2.307 3.514 3.807 5.292 1.36 1.612 2.933 3.1 4.81 4.548zM1.21 3.995c-.013-.324.108-.61.368-.871.566-.57 1.134-1.138 1.707-1.7a.723.723 0 0 1 .497-.228c.137 0 .266.049.381.145.086.072.171.194.261.324.05.07.098.14.15.207.491.65.98 1.301 1.468 1.953l.659.877c.185.248.268.456.266.676a.43.43 0 0 1-.137.336l-.252.253-.356.354-.426-.527a.605.605 0 0 0-.94.759l.941 1.165c.004.005.01.008.013.013 1.156 1.523 2.292 2.793 3.471 3.882a39.632 39.632 0 0 0 2.96 2.457l.051.035a.6.6 0 0 0 .09.078l1.415.996a.604.604 0 0 0 .696-.988l-.821-.578c.064-.063.126-.128.19-.19l.255-.255c.21-.21.36-.234.455-.234.103 0 .224.032.362.096.21.097.411.254.624.42.081.063.162.126.245.188.33.243.656.491.983.74.561.426 1.142.867 1.737 1.28.16.112.249.24.266.385a.546.546 0 0 1-.146.416 23.249 23.249 0 0 1-2.01 1.996c-.212.185-.384.273-1.043.273h-.02c-.418-.013-1.021-.24-1.697-.64a36.36 36.36 0 0 1-3.747-2.552c-1.809-1.396-3.321-2.825-4.624-4.37-1.457-1.728-2.665-3.407-3.693-5.133a4.26 4.26 0 0 1-.599-2.038z"/>
</svg>
