<svg xmlns="http://www.w3.org/2000/svg" width="20" height="19" viewBox="0 0 20 19">
    <path fill="#FFF" fill-rule="nonzero" d="M20 7.646c0 4.209-3.437 7.646-7.646 7.646-1.69 0-4.214-.955-4.687-1.287-.316-.221-2.1 1.364-5.354 4.757-.452.452-2.01-.605-1.557-1.057l5.604-5.187c-.935-1.269-1.652-3.183-1.652-4.872C4.708 3.436 8.145 0 12.354 0 16.564 0 20 3.437 20 7.646zm-7.646-5.988a5.968 5.968 0 0 0-5.987 5.988 5.968 5.968 0 0 0 5.987 5.987 5.968 5.968 0 0 0 5.988-5.987 5.968 5.968 0 0 0-5.988-5.988z"/>
</svg>
