<svg xmlns="http://www.w3.org/2000/svg" width="63" height="12" viewBox="0 0 63 12">
    <path fill="#B0B4B6" fill-rule="nonzero" d="M7 8.206c0 1.115-.197 1.83-.604 2.4C5.84 11.382 4.748 12 3.401 12 1.37 12 .406 10.74.163 9.685h1.799c.14.315.395.545.673.69.325.183.662.231.86.231.928 0 1.938-.667 1.938-2.048v-.57C5.108 8.594 4.423 9.2 3.32 9.2 1.451 9.2 0 7.71 0 5.624 0 3.406 1.52 2 3.32 2c.94 0 1.741.448 2.113 1.115v-.897H7v5.988zM1.556 5.612c0 1.188.812 2.097 1.95 2.097.58 0 1.045-.218 1.381-.582.348-.363.546-.86.557-1.442 0-.521-.15-1.067-.476-1.467-.301-.412-.789-.679-1.474-.679-1.056 0-1.95.849-1.95 2.073h.012zM8 2.206h1.351v.896C9.617 2.497 10.106 2.012 11 2v1.635h-.064c-1 0-1.51.533-1.51 1.708V9H8V2.206zM12 0h1.75v1.417H12V0zm0 2.321h1.75V9H12V2.321zm10 4.067C21.619 7.858 20.298 9 18.571 9 16.452 9 15 7.376 15 5.494 15 3.541 16.524 2 18.512 2 20.19 2 21.619 3.047 22 4.659h-1.631c-.274-.694-.929-1.188-1.798-1.188-.583-.012-1.035.188-1.428.564-.345.365-.548.894-.548 1.47 0 1.19.845 2.036 1.976 2.036 1 0 1.56-.588 1.798-1.13H22v-.023zm.5-4.182h1.351v.896c.255-.605.745-1.09 1.649-1.102v1.635h-.064c-1 0-1.51.533-1.51 1.708V9H22.5V2.206zM41 8.8h-1.543v-.953C39.043 8.612 38.191 9 37.281 9 35.21 9 34 7.353 34 5.494 34 3.412 35.474 2 37.281 2c1.175 0 1.9.635 2.176 1.165V2.2H41v6.6zm-5.457-3.27c0 .823.575 2.011 1.969 2.011.863 0 1.427-.459 1.715-1.059.15-.282.23-.6.253-.93a2.152 2.152 0 0 0-.172-.928c-.265-.624-.875-1.165-1.796-1.165-1.267 0-1.97 1.035-1.97 2.07zm-7.44.494c.071 1.058 1.022 1.647 1.924 1.635.772 0 1.295-.353 1.603-.894h1.64c-.321.73-.785 1.282-1.343 1.659-.558.388-1.211.576-1.912.576A3.482 3.482 0 0 1 26.5 5.518C26.5 3.648 27.984 2 29.991 2c.998 0 1.865.376 2.494 1.012.808.823 1.117 1.859.986 3.023h-5.368v-.011zm3.8-1.2c-.059-.624-.736-1.506-1.9-1.495-1.175 0-1.817.847-1.876 1.495h3.776zm10.749-1.276H41.5V2.32h1.152V0h1.66v2.321H45.5v1.227h-1.189V9h-1.66V3.548zM46.5 0h1.75v1.417H46.5V0zm0 2.321h1.75V9H46.5V2.321zm10.606 3.703c.071 1.058 1.023 1.647 1.927 1.635.773 0 1.297-.353 1.606-.894h1.642c-.322.73-.785 1.282-1.345 1.659-.559.388-1.213.576-1.915.576A3.485 3.485 0 0 1 55.5 5.518C55.5 3.648 56.987 2 58.997 2c1 0 1.868.376 2.487 1.012.809.823 1.118 1.859.987 3.023h-5.365v-.011zm3.795-1.2c-.06-.624-.726-1.506-1.892-1.495-1.177 0-1.82.847-1.891 1.495H60.9zM52.83 9h-1.674L48.5 2h1.776L52 6.891 53.724 2H55.5l-2.67 7z"/>
</svg>
