<?xml version="1.0" encoding="utf-8"?>
<!-- Generator: Adobe Illustrator 25.1.0, SVG Export Plug-In . SVG Version: 6.00 Build 0)  -->
<svg version="1.1" id="katman_1" xmlns="http://www.w3.org/2000/svg" xmlns:xlink="http://www.w3.org/1999/xlink" x="0px" y="0px"
	 viewBox="0 0 130 68" style="enable-background:new 0 0 130 68;" xml:space="preserve">
<style type="text/css">
	.st0{fill:#E6233C;}
	.st1{fill:#FFFFFF;}
</style>
<g>
	<path class="st0" d="M129,18.8c0,10.4-8.4,18.8-18.8,18.8c-10.4,0-18.8-8.4-18.8-18.8C91.4,8.4,99.8,0,110.2,0
		C120.6,0,129,8.4,129,18.8"/>
	<path class="st0" d="M83.8,18.8c0,10.4-8.4,18.8-18.8,18.8c-10.4,0-18.8-8.4-18.8-18.8C46.2,8.4,54.6,0,65,0
		C75.4,0,83.8,8.4,83.8,18.8"/>
	<path class="st0" d="M38.6,18.8c0,10.4-8.4,18.8-18.8,18.8C9.4,37.6,1,29.2,1,18.8C1,8.4,9.4,0,19.8,0C30.2,0,38.6,8.4,38.6,18.8"
		/>
	<path class="st1" d="M3.4,61.1h3.5c0.2,2.6,2.2,4,4.8,4c2.1,0,4-0.9,4-3c0-1.3-0.8-2.2-3.1-2.7l-2.8-0.6c-3.4-0.7-5.9-1.9-5.9-5.7
		c0-3.6,3.3-6,7.4-6c4.3,0,7.5,2.5,7.6,6.4h-3.5c-0.2-2.2-2-3.5-4.3-3.5c-2,0-3.7,1.2-3.7,2.8c0,1.2,0.7,2.1,2.7,2.5l3.8,0.8
		c4,0.9,5.3,2.9,5.3,5.5c0,4-3.5,6.3-7.6,6.3C6.9,68,3.4,65.4,3.4,61.1"/>
	<path class="st1" d="M24.5,58.6h7.7c-0.5-2.3-1.9-3.2-3.8-3.2C26.4,55.4,25,56.7,24.5,58.6 M35.7,61.1H24.4c0.3,2.3,1.7,4,4.2,4
		c1.9,0,3.1-1,3.4-2.2h3.5c-0.4,2.9-3.1,5.1-7,5.1c-4.7,0-7.6-3.4-7.6-7.8c0-4.4,3-7.7,7.6-7.7c4.3,0,7.2,3.1,7.2,7.2
		C35.7,60.2,35.7,60.8,35.7,61.1"/>
	<path class="st1" d="M37.6,60.2c0-4.4,3-7.7,7.7-7.7c3.9,0,6.8,2.4,7.1,5.7h-3.5c-0.3-1.6-1.6-2.8-3.6-2.8c-2.7,0-4.3,2.1-4.3,4.8
		c0,2.7,1.6,4.9,4.3,4.9c2,0,3.3-1.2,3.6-2.8h3.5c-0.5,3.4-3.3,5.8-7.1,5.8C40.6,68,37.6,64.6,37.6,60.2"/>
	<path class="st1" d="M54.3,61.1v-8.3h3.3v8c0,2.7,1,4.4,3.3,4.4c2.5,0,3.7-2.1,3.7-4.8v-7.6H68v14.9h-3.3V66c-1.2,1.3-2.6,2-4.5,2
		C56.1,68,54.3,65.4,54.3,61.1"/>
	<path class="st1" d="M70.7,67.7V52.8H74v2.2c1.1-1.8,2.8-2.2,4.7-2.2h0.5v3.1h-0.3c-2.9,0-4.8,0.9-4.8,4.4v7.4H70.7z"/>
	<path class="st1" d="M81.2,52.8h3.3v14.9h-3.3V52.8z M80.8,48.8c0-1.2,0.9-2.1,2.1-2.1c1.2,0,2.1,0.9,2.1,2.1
		c0,1.2-0.9,2.1-2.1,2.1C81.7,50.9,80.8,50.1,80.8,48.8"/>
	<path class="st1" d="M94.2,67.7c-3,0-5.1-1.5-5.1-5v-7.1h-2.6v-2.8h2.6v-4.1h3.3v4.1h3.7v2.8h-3.7v6.9c0,1,0.5,2.3,2.1,2.3h1.9v2.9
		H94.2z"/>
	<path class="st1" d="M107.9,61.8v-0.6h-4c-1.3,0-2.6,0.6-2.6,2.2c0,1.5,1.2,2.1,2.7,2.1C106.4,65.5,107.9,64,107.9,61.8 M97.8,63.5
		c0-3.4,2.7-4.7,6.4-4.7h3.7V58c0-1.7-1.3-2.9-3.1-2.9c-1.6,0-2.9,0.8-3.2,2.1h-3.4c0.3-3.2,3.2-4.8,6.7-4.8c3.8,0,6.3,2.2,6.3,5.9
		v5.2c0,0.8,0.4,1.3,1.2,1.3h0.3v2.8h-1.4c-1.4,0-2.7-0.3-3-2c-1.3,1.7-3.1,2.3-5,2.3C100.2,68,97.8,66.5,97.8,63.5"/>
	<path class="st1" d="M113.8,62.8l3.2,0c0.3,1.6,1.6,2.6,3.5,2.6c1.3,0,2.8-0.4,2.8-1.9c0-1-0.7-1.5-2.4-1.7l-2.6-0.5
		c-1.8-0.3-4.2-1.1-4.2-4c0-2.6,2.4-4.8,6.1-4.8c4.4,0,6.2,2.8,6.2,4.9h-3.2c-0.3-1.4-1.5-2.2-3.1-2.2c-1.7,0-2.7,0.9-2.7,1.9
		c0,0.8,0.6,1.2,1.7,1.4l3.3,0.6c2.8,0.5,4.3,1.9,4.3,4.2c0,3.4-3.1,4.9-6.2,4.9C117.2,68,114.1,66.4,113.8,62.8"/>
</g>
</svg>
