<?xml version="1.0" encoding="utf-8"?>
<!-- Generator: Adobe Illustrator 26.2.1, SVG Export Plug-In . SVG Version: 6.00 Build 0)  -->
<svg version="1.1" id="Layer_1" xmlns="http://www.w3.org/2000/svg" xmlns:xlink="http://www.w3.org/1999/xlink" x="0px" y="0px"
	 viewBox="0 0 20 20" style="enable-background:new 0 0 20 20;" xml:space="preserve">
<style type="text/css">
	.st0{fill:#FFFFFF;}
</style>
<path class="st0" d="M11.09,1.97c-0.36-0.24-0.75-0.45-1.15-0.61C9.55,1.2,9.14,1.08,8.72,1C8.31,0.92,7.89,0.88,7.47,0.88
	C7.05,0.88,6.62,0.92,6.21,1C5.79,1.08,5.38,1.2,4.99,1.36C4.59,1.53,4.2,1.73,3.84,1.97C3.47,2.22,3.12,2.51,2.81,2.82
	c-0.32,0.32-0.6,0.67-0.84,1.04c-0.24,0.36-0.44,0.75-0.6,1.16C1.2,5.42,1.08,5.84,1,6.26C0.92,6.67,0.88,7.1,0.88,7.52
	c0,0.42,0.04,0.85,0.12,1.27c0.08,0.42,0.2,0.84,0.36,1.23c0.16,0.4,0.37,0.79,0.6,1.16c0.24,0.37,0.53,0.72,0.84,1.04
	c0.32,0.32,0.66,0.6,1.03,0.85c0.36,0.24,0.75,0.45,1.15,0.61c0.39,0.16,0.8,0.28,1.22,0.37c0.41,0.08,0.84,0.12,1.26,0.12
	c0.42,0,0.84-0.04,1.26-0.12c0.42-0.08,0.83-0.2,1.22-0.37c0.4-0.16,0.79-0.37,1.15-0.61c0.2-0.13,0.4-0.28,0.59-0.44l1.3,1.32
	l-0.06,0.07c-0.22,0.23-0.22,0.6,0,0.82l4.75,4.79c0.22,0.23,0.59,0.23,0.82,0l0.99-0.99c0.22-0.23,0.22-0.6,0-0.82l-4.75-4.79
	c-0.22-0.23-0.59-0.23-0.82,0l-0.06,0.07l-1.3-1.32c0.16-0.19,0.3-0.39,0.44-0.59c0.24-0.36,0.44-0.75,0.6-1.16
	c0.16-0.4,0.28-0.81,0.36-1.23c0.08-0.42,0.12-0.84,0.12-1.27c0-0.42-0.04-0.85-0.12-1.27c-0.08-0.42-0.2-0.84-0.36-1.23
	c-0.16-0.4-0.37-0.79-0.6-1.16c-0.24-0.37-0.53-0.72-0.84-1.04C11.81,2.51,11.46,2.22,11.09,1.97z M11.33,11.42
	c-2.13,2.15-5.59,2.15-7.72,0s-2.13-5.64,0-7.79s5.59-2.15,7.72,0S13.46,9.27,11.33,11.42z"/>
</svg>
